<?xml version="1.0" standalone="no"?>
<!DOCTYPE svg PUBLIC "-//W3C//DTD SVG 20010904//EN"
 "http://www.w3.org/TR/2001/REC-SVG-20010904/DTD/svg10.dtd">
<svg version="1.0" xmlns="http://www.w3.org/2000/svg"
 width="1024.000000pt" height="1024.000000pt" viewBox="0 0 1024.000000 1024.000000"
 preserveAspectRatio="xMidYMid meet">

<g transform="translate(0.000000,1024.000000) scale(0.100000,-0.100000)"
fill="#000000" stroke="none">
<path d="M0 5120 l0 -5120 3520 0 3519 0 4 83 3 82 2 -82 2 -83 35 0 c34 0 35
1 35 40 0 30 4 40 16 40 13 0 15 8 12 40 -3 38 -2 40 23 40 26 0 27 2 34 80
l7 80 34 0 c33 0 34 1 34 40 l0 40 40 0 40 0 0 59 c0 32 3 86 6 120 l7 61 33
0 c33 0 34 1 34 40 l0 40 40 0 40 0 0 59 c0 32 3 86 6 120 l7 61 33 0 c33 0
34 1 34 40 l0 40 40 0 40 0 0 59 c0 32 3 86 6 120 l7 61 33 0 c33 0 34 1 34
40 l0 40 40 0 40 0 2 123 c1 67 3 103 5 79 4 -41 5 -42 39 -42 l34 0 0 80 0
80 40 0 40 0 0 40 0 40 40 0 40 0 0 79 c0 73 2 79 22 84 12 4 19 9 15 13 -4 4
-3 12 2 18 13 17 24 119 11 111 -5 -3 -10 -23 -10 -43 -1 -31 -3 -34 -13 -21
-8 10 -32 16 -67 18 -30 1 -58 5 -62 7 -5 3 -8 -3 -8 -13 0 -15 -2 -16 -10 -3
-5 8 -10 10 -10 4 0 -13 -45 -35 -54 -27 -3 4 -6 13 -6 21 0 9 3 12 7 9 3 -4
12 1 19 11 10 13 13 93 14 339 l0 322 -137 3 -138 3 -3 54 c-4 63 4 101 19
101 6 0 8 -4 4 -10 -3 -5 122 -8 337 -7 189 1 323 3 298 5 -25 1 -124 6 -220
11 l-175 9 241 -2 c224 -1 240 -2 236 -18 -2 -10 -9 -18 -14 -18 -7 0 -9 -29
-6 -78 5 -84 -4 -104 -37 -91 -11 4 -56 8 -100 9 -95 3 -82 7 35 13 47 2 76 0
65 -4 -19 -7 -19 -8 3 -8 13 -1 22 5 22 14 0 13 -22 15 -134 15 l-135 0 0
-307 c0 -170 4 -317 9 -328 8 -19 9 -19 9 3 1 12 6 22 11 22 6 0 11 96 12 263
l2 262 6 -265 6 -265 3 205 4 205 8 -140 c4 -77 5 -168 2 -202 -6 -63 -6 -63
21 -63 24 0 26 3 26 40 0 29 4 40 15 40 11 0 15 11 15 40 l0 40 40 0 40 0 0
80 c0 79 0 80 25 80 23 0 25 4 25 40 0 29 4 40 16 40 12 0 15 12 13 63 -1 34
-4 67 -8 72 -10 17 -10 35 0 35 6 0 8 4 4 9 -6 11 33 36 43 27 3 -3 0 -6 -6
-6 -7 0 -12 -5 -12 -11 0 -5 4 -7 10 -4 16 10 11 -22 -6 -39 -17 -18 -11 -36
12 -36 8 0 12 5 9 10 -3 5 -2 10 3 10 12 0 24 -29 16 -41 -3 -5 -1 -9 4 -9 6
0 10 29 11 65 0 36 -3 64 -7 63 -4 0 -15 2 -24 6 -32 14 -8 26 53 26 l59 0 0
79 0 80 38 3 37 3 3 78 3 77 39 0 40 0 0 80 0 80 40 0 40 0 0 80 0 80 40 0 40
0 0 80 0 80 39 0 39 0 7 80 7 80 34 0 c33 0 34 1 34 40 0 36 3 40 25 40 23 0
25 4 25 40 0 29 4 40 15 40 11 0 15 11 15 40 0 29 4 40 15 40 11 0 15 11 15
40 0 36 3 40 25 40 23 0 25 4 25 40 l0 40 40 0 40 0 0 59 c0 32 3 86 6 120 l7
61 33 0 c33 0 34 1 34 40 l0 40 40 0 40 0 0 59 c0 32 3 86 6 120 l7 61 33 0
c33 0 34 1 34 40 l0 40 40 0 40 0 2 123 c1 67 3 103 5 80 4 -42 5 -43 39 -43
l34 0 0 80 0 80 40 0 40 0 0 40 c0 29 4 40 15 40 11 0 15 11 15 40 0 36 3 40
25 40 23 0 25 4 25 40 0 22 5 40 10 40 6 0 10 31 10 74 l0 75 70 7 70 7 0 78
0 79 40 0 40 0 0 80 0 80 39 0 38 0 7 70 c4 38 4 74 1 80 -4 6 8 10 29 10 34
0 35 -1 39 -42 2 -24 4 948 5 2160 l2 2202 -5120 0 -5120 0 0 -5120z m5216
3039 c60 -34 146 -82 192 -107 45 -25 82 -49 82 -52 0 -4 -61 -41 -135 -84
l-135 -77 -61 36 -60 35 -137 -81 c-157 -93 -310 -184 -429 -253 l-82 -48 6
-662 c5 -629 6 -662 24 -677 10 -9 96 -61 191 -114 275 -156 283 -161 283
-173 0 -10 -113 -86 -210 -141 l-41 -22 -144 82 c-80 45 -165 93 -190 107 -25
13 -75 42 -112 64 l-68 40 0 82 c0 44 -3 416 -7 826 l-6 745 84 50 c507 300
825 485 834 485 6 0 61 -28 121 -61z m674 -382 c107 -61 215 -121 240 -135 25
-14 50 -28 55 -32 6 -4 89 -51 185 -105 96 -53 176 -99 178 -100 7 -7 19
-1641 13 -1653 -8 -14 -337 -212 -352 -212 -5 0 -9 70 -9 155 l0 156 46 27 46
27 -6 374 c-3 206 -6 506 -6 667 l0 292 -127 72 c-181 102 -261 148 -396 224
l-117 67 -283 -167 c-155 -92 -311 -184 -347 -204 -36 -20 -83 -48 -105 -61
-22 -14 -60 -37 -85 -51 -25 -14 -78 -45 -118 -68 -40 -24 -74 -41 -76 -39 -2
2 -6 73 -7 158 -3 110 0 156 8 158 11 4 125 70 403 236 74 44 151 89 170 100
19 10 98 56 175 102 285 168 256 154 290 137 17 -8 118 -64 225 -125z m-1850
-362 l0 -156 -45 -27 -46 -27 7 -665 c6 -600 8 -666 23 -678 14 -12 291 -169
431 -245 30 -17 66 -38 80 -47 14 -10 44 -27 68 -39 49 -25 32 -31 207 74 66
39 172 102 235 139 63 37 122 71 130 76 291 172 482 282 485 278 1 -2 5 -72 8
-156 l5 -152 -72 -42 c-39 -22 -107 -62 -151 -88 -44 -27 -96 -57 -115 -67
-36 -21 -205 -120 -470 -278 -85 -51 -170 -100 -187 -109 l-32 -16 -95 52
c-51 29 -255 145 -453 257 l-360 205 -6 320 c-4 177 -7 551 -7 831 l0 510 68
39 c37 22 114 68 172 103 57 35 108 63 112 63 4 0 8 -70 8 -155z m1605 -106
c49 -29 125 -71 168 -95 42 -24 112 -64 155 -89 l79 -45 6 -418 c4 -229 7
-601 8 -827 l1 -410 -74 -46 c-65 -41 -201 -122 -298 -177 -19 -11 -64 -38
-100 -61 -36 -23 -72 -44 -80 -48 -8 -3 -46 -25 -85 -48 -64 -38 -262 -154
-276 -161 -3 -2 -44 18 -90 44 -46 27 -135 77 -196 112 -62 35 -113 66 -113
70 0 3 17 15 38 27 20 11 77 43 127 71 49 29 96 52 105 52 8 0 39 -13 68 -30
l53 -29 87 51 c48 28 114 66 147 85 33 19 141 83 239 141 l179 107 -6 254 c-4
140 -7 438 -7 662 l0 409 -37 23 c-21 13 -126 74 -235 134 -108 61 -206 118
-218 126 l-22 15 38 25 c22 13 53 32 69 41 17 9 55 32 85 51 30 19 64 34 75
35 10 0 60 -23 110 -51z m4442 -1501 c-2 -24 -4 -7 -4 37 0 44 2 63 4 43 2
-21 2 -57 0 -80z m-170 50 c-2 -13 -4 -5 -4 17 -1 22 1 32 4 23 2 -10 2 -28 0
-40z m10 -370 c-2 -24 -4 -7 -4 37 0 44 2 63 4 43 2 -21 2 -57 0 -80z m-160
-320 c-2 -24 -4 -7 -4 37 0 44 2 63 4 43 2 -21 2 -57 0 -80z m-3474 -618 c98
-88 183 -159 190 -157 7 1 11 -3 10 -10 -2 -6 37 -47 85 -90 49 -43 139 -123
200 -177 62 -55 112 -104 112 -108 0 -4 -794 -8 -1765 -8 -1406 0 -1765 3
-1764 13 0 6 56 62 125 122 68 61 140 125 161 144 76 67 409 367 443 398 l35
33 995 0 995 0 178 -160z m597 -670 c1 -5 1 -48 1 -95 0 -47 0 -90 -1 -95 0
-8 -551 -10 -1770 -10 l-1770 2 0 97 c0 54 3 101 7 104 11 12 3533 8 3533 -3z
m1783 -687 c-20 -4 -22 -11 -26 -76 l-3 -72 -2 78 -2 77 28 -1 c22 -1 23 -2 5
-6z m-328 -323 c3 -5 1 -10 -4 -10 -6 0 -11 5 -11 10 0 6 2 10 4 10 3 0 8 -4
11 -10z m35 6 c0 -3 -4 -8 -10 -11 -5 -3 -10 -1 -10 4 0 6 5 11 10 11 6 0 10
-2 10 -4z m-77 -13 c-13 -2 -33 -2 -45 0 -13 2 -3 4 22 4 25 0 35 -2 23 -4z
m187 -31 c0 -8 -6 -12 -12 -9 -13 4 -18 25 -10 41 5 10 22 -14 22 -32z m-3391
-28 c94 -37 101 -47 70 -108 -13 -26 -26 -49 -30 -52 -4 -2 -31 7 -61 21 -60
27 -156 41 -212 31 -43 -8 -96 -51 -96 -77 0 -31 28 -66 63 -79 18 -6 74 -22
125 -36 111 -29 176 -60 219 -106 40 -42 53 -76 53 -141 -1 -101 -58 -175
-167 -218 -78 -30 -240 -31 -324 -1 -65 23 -138 66 -145 87 -6 14 33 102 49
112 4 3 25 -6 45 -19 116 -76 269 -87 346 -27 82 64 38 143 -94 170 -151 31
-252 82 -296 148 -52 80 -26 209 55 269 95 69 260 80 400 26z m2045 25 c45 -8
140 -51 165 -74 7 -7 -53 -115 -64 -115 -6 0 -31 9 -54 21 -139 67 -301 40
-301 -50 0 -33 43 -76 67 -66 8 2 11 0 8 -5 -3 -6 0 -11 7 -11 56 -6 158 -33
197 -53 18 -10 39 -15 47 -12 9 3 12 1 9 -4 -3 -6 2 -13 12 -17 31 -12 92 -84
103 -122 54 -196 -141 -340 -409 -301 -121 18 -235 80 -228 124 3 20 45 96 53
96 2 0 32 -16 66 -35 142 -78 306 -66 353 26 17 32 11 55 -22 87 -27 24 -38
29 -27 10 4 -7 -1 -6 -12 4 -10 9 -57 26 -104 38 -210 56 -282 120 -281 247 1
166 177 256 415 212z m-5273 -27 c73 -29 133 -82 167 -146 22 -43 27 -64 27
-131 0 -128 -55 -220 -160 -270 -56 -26 -102 -33 -270 -39 l-100 -3 -3 -92 -3
-91 -74 0 -75 0 0 401 0 401 218 -4 c195 -4 223 -6 273 -26z m1054 3 c104 -37
175 -116 196 -218 14 -62 5 -146 -21 -197 -19 -38 -96 -120 -112 -120 -4 0 -8
-5 -8 -11 0 -12 140 -202 153 -207 4 -2 7 -8 7 -13 0 -5 -39 -9 -87 -9 l-88 0
-69 96 c-57 80 -72 95 -90 90 -11 -3 -65 -6 -118 -6 l-98 0 0 -90 0 -90 -75 0
-75 0 0 401 0 401 218 -4 c176 -4 227 -8 267 -23z m1002 13 c6 -7 31 -60 57
-118 26 -58 65 -143 86 -190 21 -47 62 -137 91 -200 28 -63 61 -135 72 -160
18 -40 46 -111 47 -117 0 -2 -35 -3 -78 -3 l-78 0 -24 65 -24 65 -218 0 -218
0 -32 -67 -33 -67 -70 3 c-38 1 -71 4 -73 6 -2 1 29 74 68 161 40 88 81 179
92 204 11 25 44 97 72 160 29 63 68 150 87 192 l34 78 66 0 c41 0 70 -5 76
-12z m2175 -130 c35 -79 65 -135 71 -131 6 3 7 1 3 -5 -6 -11 20 -74 154 -367
80 -177 81 -160 -10 -156 -41 2 -78 4 -81 6 -3 2 -16 31 -30 65 l-24 60 -215
0 -216 0 -31 -66 -30 -65 -77 -2 c-42 -1 -76 2 -76 6 0 10 84 198 111 249 11
21 20 40 19 43 0 3 11 29 24 58 30 63 120 263 167 370 l34 78 73 -3 73 -3 61
-137z m2318 122 c0 -5 9 -10 21 -10 13 0 18 4 13 12 -4 7 -3 8 4 4 7 -4 8 -15
2 -30 -5 -13 -6 -27 -3 -30 4 -3 1 -6 -5 -6 -7 0 -12 -7 -12 -15 0 -9 -9 -15
-24 -15 -15 0 -26 -7 -29 -17 -2 -10 -3 9 -3 42 1 55 8 74 29 75 4 0 7 -4 7
-10z m-1097 -27 c-3 -7 -9 -13 -13 -13 -4 0 -10 6 -13 13 -3 7 3 13 13 13 10
0 16 -6 13 -13z m313 -100 c-10 -10 -19 5 -10 18 6 11 8 11 12 0 2 -7 1 -15
-2 -18z m481 -35 c-3 -8 -6 -5 -6 6 -1 11 2 17 5 13 3 -3 4 -12 1 -19z m199
-31 c9 -9 7 -9 -78 -11 -62 -2 -77 2 -63 15 7 8 133 4 141 -4z m55 -37 c28
-16 23 -30 -11 -30 -28 0 -30 -3 -32 -37 -1 -34 -2 -33 -7 12 -7 62 7 78 50
55z m-1246 -380 c-3 -5 -14 -10 -23 -9 -14 0 -13 2 3 9 27 11 27 11 20 0z
m225 -60 c0 -5 -5 -10 -11 -10 -5 0 -7 5 -4 10 3 6 8 10 11 10 2 0 4 -4 4 -10z
m-70 -74 c0 -2 -7 -7 -16 -10 -8 -3 -12 -2 -9 4 6 10 25 14 25 6z m757 -67
c-9 -6 -15 -14 -12 -20 4 -5 0 -9 -7 -9 -8 0 -14 9 -14 20 0 15 7 20 26 20 22
-1 23 -2 7 -11z m-40 -64 c0 -8 -7 -15 -15 -15 -12 0 -12 3 -2 15 7 8 13 15
15 15 1 0 2 -7 2 -15z m10 -132 c-2 -21 -4 -4 -4 37 0 41 2 58 4 38 2 -21 2
-55 0 -75z"/>
<path d="M1530 2526 l0 -173 59 -6 c54 -6 119 -3 197 9 38 5 86 46 109 93 22
44 16 131 -11 168 -49 66 -99 82 -256 83 l-98 0 0 -174z"/>
<path d="M2590 2521 l0 -181 103 0 c155 0 212 23 257 102 30 54 25 132 -13
181 -43 57 -85 71 -224 75 l-123 4 0 -181z"/>
<path d="M3820 2573 c-18 -43 -43 -103 -57 -133 -41 -88 -63 -141 -63 -148 0
-7 302 -4 308 3 2 2 -8 28 -22 59 -14 31 -26 58 -26 60 0 3 -15 37 -34 78 -18
40 -39 89 -46 108 -7 19 -16 39 -20 43 -4 5 -22 -27 -40 -70z"/>
<path d="M5922 2549 c-24 -55 -39 -105 -36 -111 4 -6 3 -8 -3 -5 -5 3 -24 -28
-41 -68 l-31 -75 155 0 c85 0 154 1 154 3 0 18 -49 115 -55 109 -5 -4 -5 -2
-2 4 5 9 -80 224 -94 239 -3 2 -24 -41 -47 -96z"/>
<path d="M8661 2868 c0 -7 4 -22 9 -33 8 -18 9 -17 9 7 1 15 -3 30 -9 33 -5 3
-10 0 -9 -7z"/>
<path d="M8700 2865 c0 -11 -3 -31 -6 -45 l-6 -25 14 25 c11 21 21 25 58 26
l45 2 -45 -8 -45 -8 45 2 c58 1 58 20 0 24 -24 2 -48 9 -52 15 -5 8 -8 5 -8
-8z"/>
<path d="M8821 2864 c0 -11 3 -14 6 -6 3 7 2 16 -1 19 -3 4 -6 -2 -5 -13z"/>
<path d="M8848 2875 c-4 -6 1 -21 11 -33 16 -22 17 -22 18 -2 1 11 -2 18 -7
15 -5 -3 -10 3 -12 12 -2 10 -6 14 -10 8z"/>
<path d="M8642 2840 c0 -14 2 -19 5 -12 2 6 2 18 0 25 -3 6 -5 1 -5 -13z"/>
<path d="M8828 2833 c7 -3 16 -2 19 1 4 3 -2 6 -13 5 -11 0 -14 -3 -6 -6z"/>
<path d="M8674 2525 c0 -154 2 -216 3 -137 2 79 2 205 0 280 -1 75 -3 11 -3
-143z"/>
<path d="M8647 2761 c-2 -10 -1 -25 4 -32 6 -10 9 -4 9 19 0 36 -5 42 -13 13z"/>
<path d="M8693 2680 c0 -25 2 -35 4 -22 2 12 2 32 0 45 -2 12 -4 2 -4 -23z"/>
<path d="M8415 2570 c3 -5 13 -10 21 -10 8 0 14 5 14 10 0 6 -9 10 -21 10 -11
0 -17 -4 -14 -10z"/>
<path d="M8653 2480 c0 -41 2 -58 4 -37 2 20 2 54 0 75 -2 20 -4 3 -4 -38z"/>
<path d="M8697 2073 c-4 -3 -7 -11 -7 -17 0 -6 5 -5 12 2 6 6 9 14 7 17 -3 3
-9 2 -12 -2z"/>
<path d="M8152 2025 c0 -16 2 -22 5 -12 2 9 2 23 0 30 -3 6 -5 -1 -5 -18z"/>
</g>
</svg>
